# xmcd CD database file
#
# Track frame offsets:
#	150
#	17039
#	59483
#	88619
#	111910
#	136577
#	156941
#
# Disc length: 2449 seconds
#
# Revision: 0
# Processed by: cddbd v1.5.1PL0 Copyright (c) Steve Scherf et al.
# Submitted via: CDex 1.51
#
DISCID=54098f07
DTITLE=Dzem - Zemsta Nietoperzy
DYEAR=1900
DGENRE=Blues
TTITLE0=Boze daj dom
TTITLE1=Uwierz Mirando
TTITLE2=Usmiech smierci
TTITLE3=Naiwne pytania
TTITLE4=Koszmarna noc
TTITLE5=Magazyn mod
TTITLE6=Klosz
EXTD=
EXTT0=
EXTT1=
EXTT2=
EXTT3=
EXTT4=
EXTT5=
EXTT6=
PLAYORDER=
